<?xml version="1.0" encoding="utf-8"?>
<!-- Generator: Adobe Illustrator 21.0.0, SVG Export Plug-In . SVG Version: 6.00 Build 0)  -->
<svg version="1.1" id="house-floorplan" xmlns="http://www.w3.org/2000/svg" xmlns:xlink="http://www.w3.org/1999/xlink" x="0px"
	 y="0px" viewBox="0 0 950 923" style="enable-background:new 0 0 950 923;" xml:space="preserve">
<style type="text/css">
	.st0{fill:#FFFFFF;}
	.st1{font-family:'TrebuchetMS-Bold'; cursor: pointer;}
	.st2{font-size:24px;}
	.st3{opacity:0;fill:#CCCCCC;}
</style>
<title>Layer 1</title>
<image style="overflow:visible;enable-background:new    ;" width="950" height="923" id="background" xlink:href="house_floorplan.jpeg" >
</image>
<rect id="background-cover" x="578.3" y="518.7" class="st0" width="349.3" height="374.7"/>
<text id="text-LivingRoom" transform="matrix(1 0 0 1 78.3373 553.3279)" class="st1 st2">Living Room</text>
<rect id="room-LivingRoom" x="79.7" y="561.3" class="st3" width="373.3" height="264.8"/>
<rect id="room-default" x="545" y="625.3" class="st3" width="373.3" height="153.3"/>
<text id="text-Patio" transform="matrix(1 0 0 1 126.4171 231.7986)" class="st1 st2">Patio</text>
<rect id="room-Patio" x="63.4" y="386.3" class="st3" width="129.2" height="89.5"/>
<text id="text-Lounge" transform="matrix(1 0 0 1 254.7806 151.9355)" class="st1 st2">Lounge</text>
<rect id="room-Lounge" x="239.6" y="168.2" class="st3" width="129.2" height="89.5"/>
<text id="text-Bedroom" transform="matrix(1 0 0 1 789.142 348.7544)" class="st1 st2">Bedroom</text>
<rect id="room-Bedroom" x="775.3" y="231.8" class="st3" width="129.2" height="89.5"/>
<text id="text-Hall" transform="matrix(1 0 0 1 295.0014 339.2298)" class="st1 st2">Hall</text>
<rect id="room-Hall" x="223" y="359.9" class="st3" width="174.5" height="125.8"/>
</svg>
